<svg width="20" height="23" viewBox="0 0 20 23" fill="none" xmlns="http://www.w3.org/2000/svg">
<path d="M19.5394 14.6432L18.2394 12.7635C17.9663 12.3445 17.7193 11.5519 17.7193 11.0876V8.22272C17.7193 5.56167 15.9252 3.26297 13.338 2.18722C12.662 1.14545 11.4139 0.5 9.98382 0.5C8.56672 0.5 7.29269 1.16809 6.61665 2.22119C4.08148 3.31959 2.32637 5.59564 2.32637 8.22272V11.0876C2.32637 11.5519 2.07935 12.3445 1.80633 12.7522L0.493247 14.6432C-0.0267872 15.4019 -0.143795 16.2399 0.181227 17.0099C0.493247 17.7686 1.2343 18.3574 2.19636 18.6405C4.71852 19.3878 7.3707 19.7502 10.0228 19.7502C12.675 19.7502 15.3272 19.3878 17.8493 18.6518C18.7594 18.3914 19.4614 17.7912 19.7995 17.0099C20.1375 16.2285 20.0465 15.3679 19.5394 14.6432Z" fill="#111111"/>
<path d="M13.6736 20.311C13.1276 21.5871 11.6845 22.5001 9.99438 22.5001C8.96731 22.5001 7.95324 22.1481 7.23818 21.5211C6.82216 21.1911 6.51014 20.7511 6.32812 20.3C6.49714 20.322 6.66615 20.333 6.84816 20.355C7.14718 20.388 7.45921 20.421 7.77123 20.443C8.51228 20.498 9.26633 20.5311 10.0204 20.5311C10.7614 20.5311 11.5025 20.498 12.2305 20.443C12.5035 20.421 12.7766 20.41 13.0366 20.377C13.2446 20.355 13.4526 20.333 13.6736 20.311Z" fill="#111111"/>
</svg>
