<svg width="20" height="23" viewBox="0 0 20 23" fill="none" xmlns="http://www.w3.org/2000/svg">
<path d="M18.717 15.2121L18.7201 15.2165C19.0345 15.6659 19.0775 16.1602 18.8817 16.6128C18.6733 17.0943 18.2235 17.5046 17.5742 17.6904L17.5692 17.6918C15.1425 18.4 12.5849 18.7502 10.0228 18.7502C7.46078 18.7502 4.90472 18.4 2.48046 17.6817L2.47864 17.6811C1.72429 17.4592 1.27338 17.0363 1.10607 16.6295L1.10611 16.6295L1.10252 16.621C0.928736 16.2093 0.961885 15.7295 1.3165 15.2109L2.62773 13.3225L2.63253 13.3156L2.63721 13.3086C2.84682 12.9957 3.01171 12.5966 3.1233 12.2391C3.2339 11.8848 3.32637 11.462 3.32637 11.0876V8.22272C3.32637 6.07065 4.76912 4.11148 7.0142 3.13877L7.29365 3.0177L7.45817 2.76142C7.93051 2.02563 8.86895 1.5 9.98382 1.5C11.1195 1.5 12.0304 2.00925 12.4992 2.73158L12.6679 2.99158L12.9541 3.11058C15.2439 4.0627 16.7193 6.04175 16.7193 8.22272V11.0876C16.7193 11.462 16.8118 11.8847 16.922 12.2393C17.0337 12.5987 17.1971 12.9957 17.4015 13.3095L17.4091 13.321L17.4169 13.3323L18.717 15.2121Z" stroke="#BBBBBB" stroke-width="2"/>
<mask id="path-2-inside-1_525_577" fill="white">
<path d="M13.6736 20.311C13.1276 21.5871 11.6845 22.5001 9.99438 22.5001C8.96731 22.5001 7.95324 22.1481 7.23818 21.5211C6.82216 21.1911 6.51014 20.7511 6.32812 20.3C6.49714 20.322 6.66615 20.333 6.84816 20.355C7.14718 20.388 7.45921 20.421 7.77123 20.443C8.51228 20.498 9.26633 20.5311 10.0204 20.5311C10.7614 20.5311 11.5025 20.498 12.2305 20.443C12.5035 20.421 12.7766 20.41 13.0366 20.377C13.2446 20.355 13.4526 20.333 13.6736 20.311Z"/>
</mask>
<path d="M13.6736 20.311L15.5123 21.0979L16.8442 17.9856L13.4755 18.3209L13.6736 20.311ZM7.23818 21.5211L8.55678 20.0173L8.51971 19.9848L8.48109 19.9542L7.23818 21.5211ZM6.32812 20.3L6.58629 18.3168L3.19274 17.875L4.47346 21.0485L6.32812 20.3ZM6.84816 20.355L6.60816 22.3406L6.61846 22.3418L6.62877 22.343L6.84816 20.355ZM7.77123 20.443L7.91927 18.4485L7.9119 18.448L7.77123 20.443ZM12.2305 20.443L12.3812 22.4374L12.3912 22.4366L12.2305 20.443ZM13.0366 20.377L12.8262 18.3881L12.8055 18.3903L12.7848 18.393L13.0366 20.377ZM11.8349 19.5242C11.651 19.954 11.0113 20.5001 9.99438 20.5001V24.5001C12.3577 24.5001 14.6042 23.2201 15.5123 21.0979L11.8349 19.5242ZM9.99438 20.5001C9.39227 20.5001 8.86418 20.2868 8.55678 20.0173L5.91959 23.0248C7.0423 24.0093 8.54235 24.5001 9.99438 24.5001V20.5001ZM8.48109 19.9542C8.35254 19.8522 8.24312 19.7011 8.18279 19.5516L4.47346 21.0485C4.77716 21.8011 5.29177 22.5299 5.99528 23.088L8.48109 19.9542ZM6.06996 22.2833C6.19251 22.2993 6.3086 22.3104 6.39257 22.3184C6.4855 22.3273 6.54671 22.3332 6.60816 22.3406L7.08816 18.3695C6.9676 18.3549 6.8533 18.3443 6.77396 18.3367C6.68568 18.3282 6.63275 18.3228 6.58629 18.3168L6.06996 22.2833ZM6.62877 22.343C6.93032 22.3763 7.27609 22.4131 7.63056 22.4381L7.9119 18.448C7.64234 18.429 7.36404 18.3998 7.06755 18.3671L6.62877 22.343ZM7.6232 22.4376C8.40455 22.4956 9.2087 22.5311 10.0204 22.5311V18.5311C9.32396 18.5311 8.62001 18.5005 7.91926 18.4485L7.6232 22.4376ZM10.0204 22.5311C10.8201 22.5311 11.6121 22.4955 12.3812 22.4374L12.0799 18.4487C11.3928 18.5006 10.7028 18.5311 10.0204 18.5311V22.5311ZM12.3912 22.4366C12.5496 22.4238 12.9726 22.4012 13.2884 22.3611L12.7848 18.393C12.5805 18.4189 12.4575 18.4183 12.0699 18.4495L12.3912 22.4366ZM13.2469 22.366C13.4557 22.3439 13.6578 22.3225 13.8717 22.3012L13.4755 18.3209C13.2475 18.3436 13.0335 18.3662 12.8262 18.3881L13.2469 22.366Z" fill="#BBBBBB" mask="url(#path-2-inside-1_525_577)"/>
</svg>
